<?xml version="1.0" encoding="UTF-8"?>
<!DOCTYPE svg PUBLIC "-//W3C//DTD SVG 1.1//EN" "http://www.w3.org/Graphics/SVG/1.1/DTD/svg11.dtd">
<!-- Creator: CorelDRAW (Evaluation Version) -->
<svg xmlns="http://www.w3.org/2000/svg" xml:space="preserve" width="3.70708in" height="1.75978in" version="1.1" style="shape-rendering:geometricPrecision; text-rendering:geometricPrecision; image-rendering:optimizeQuality; fill-rule:evenodd; clip-rule:evenodd"
viewBox="0 0 3803.96 1805.77"
 xmlns:xlink="http://www.w3.org/1999/xlink"
 xmlns:xodm="http://www.corel.com/coreldraw/odm/2003">
 <defs>
  <style type="text/css">
   <![CDATA[
    .fil1 {fill:white}
    .fil2 {fill:#955199}
    .fil0 {fill:white;fill-rule:nonzero}
   ]]>
  </style>
 </defs>
 <g id="Layer_x0020_1">
  <metadata id="CorelCorpID_0Corel-Layer"/>
  <g id="_577218296">
   <path class="fil0" d="M714.18 532.07l0 10.2c0,40.56 -0.11,81.13 0.13,121.69 0.04,5.71 -1.53,7.44 -7.24,7.25 -10.62,-0.38 -21.27,-0.17 -31.91,0.17 -4.82,0.15 -6.61,-1.14 -6.6,-6.33 0.16,-61.54 0.1,-123.05 0.13,-184.56 0,-10.23 3.22,-19.03 13.3,-23.29 11.24,-4.75 21.96,-2.78 31.47,4.7 2.95,2.31 5.32,5.43 7.7,8.41 37.7,46.92 75.44,93.78 112.86,140.91 4.57,5.76 6.47,5.37 10.76,-0.17 36.87,-47.56 74.08,-94.86 111.09,-142.32 6.51,-8.38 14.25,-14.01 25.34,-14.11 14.98,-0.16 25.28,9.46 25.94,24.45 0.04,1.35 0.03,2.72 0.03,4.08 0,60.16 -0.07,120.32 0.13,180.49 0.04,5.83 -1.01,8.25 -7.5,7.84 -9.51,-0.58 -19.1,-0.57 -28.6,-0.01 -7.22,0.44 -9.75,-1.41 -9.65,-9.26 0.43,-39.18 0.19,-78.39 0.19,-117.58l0 -9.03c-3.49,0.33 -4.13,3.07 -5.5,4.82 -29.63,38.34 -59.16,76.77 -88.82,115.12 -11.32,14.62 -24.53,19.27 -39.12,14.3 -8.14,-2.77 -13.64,-8.71 -18.68,-15.21 -31.3,-40.17 -62.57,-80.37 -95.43,-122.56z"/>
   <path class="fil0" d="M2957.99 534.99c-14.24,18.44 -28.49,36.88 -42.7,55.34 -16.45,21.36 -32.84,42.75 -49.31,64.08 -18.14,23.43 -40.48,23.53 -58.85,0.08 -29.37,-37.51 -58.57,-75.15 -87.86,-112.73 -1.81,-2.34 -3.68,-4.66 -5.82,-7.32 -2.55,2.89 -1.47,5.97 -1.48,8.71 -0.08,40.01 -0.21,80.01 0.12,120 0.06,6.66 -2.02,8.34 -8.28,8.08 -10.35,-0.42 -20.74,-0.13 -31.08,0.13 -4.21,0.13 -6.34,-0.51 -6.33,-5.6 0.17,-62.59 0.11,-125.19 0.18,-187.78 0.02,-9.93 4.52,-17.55 13.84,-21.09 11.64,-4.44 22.77,-2.4 31.84,6.25 5.47,5.25 10,11.49 14.78,17.42 34.95,43.53 69.98,86.98 104.64,130.73 4.8,6.04 6.6,5.03 10.77,-0.36 36.7,-47.34 73.7,-94.43 110.55,-141.63 4.97,-6.35 10.55,-11.72 18.63,-13.82 18.63,-4.87 33.28,6.71 33.33,26.98 0.17,50.1 0.06,100.15 0.06,150.23 0,10.89 -0.21,21.78 0.1,32.66 0.13,4.68 -1.48,6.17 -6.08,6.07 -11.17,-0.24 -22.36,-0.48 -33.52,0.08 -6.61,0.34 -6.04,-3.36 -6.04,-7.61 0.06,-40.55 0.03,-81.09 0.03,-121.64l0 -6.5 -1.51 -0.76z"/>
   <path class="fil0" d="M2000.23 604.06l0 -139.67c0,-12.27 0,-12.27 12.68,-12.27 8.72,0 17.46,0.2 26.18,-0.08 4.76,-0.17 6.75,1.04 6.74,6.29 -0.16,61.24 0.01,122.47 -0.21,183.71 -0.06,10.63 -0.64,22.09 -12.47,27.16 -12.04,5.2 -23.32,1.35 -32.58,-6.76 -27.1,-23.63 -53.8,-47.72 -80.62,-71.68 -24.38,-21.76 -48.71,-43.6 -73.09,-65.39 -1.94,-1.75 -3.96,-3.43 -6.14,-5.32 -2.21,3.31 -1.28,6.33 -1.28,9.15 -0.08,44.62 -0.19,89.25 0.12,133.9 0.03,6.83 -1.83,8.96 -8.67,8.54 -10.04,-0.6 -20.17,-0.43 -30.26,-0.17 -4.73,0.13 -6.67,-0.91 -6.65,-6.25 0.2,-62.59 0,-125.2 0.3,-187.79 0.13,-21.44 14.02,-30.27 34.16,-22.6 7.54,2.88 13.53,8.02 19.42,13.3 48.47,43.45 96.99,86.89 145.5,130.32 1.78,1.58 3.69,3.02 6.87,5.63z"/>
   <path class="fil0" d="M2270.64 604.1l0 -55.31c0,-29.94 0.15,-59.88 -0.11,-89.83 -0.04,-5.27 1.3,-7.15 6.77,-6.97 10.89,0.38 21.8,0.24 32.72,0.06 4.17,-0.1 6.38,0.53 6.35,5.64 -0.19,62.59 0.1,125.19 -0.31,187.78 -0.16,22.91 -17.15,32.32 -37.6,21.82 -5.39,-2.78 -9.89,-6.71 -14.37,-10.71 -49.1,-43.99 -98.21,-87.99 -147.35,-131.94 -1.74,-1.55 -3.15,-3.69 -6.73,-4.32l0 8.77c0,44.91 -0.11,89.81 0.15,134.71 0.03,5.94 -1.2,8.21 -7.58,7.84 -10.6,-0.6 -21.27,-0.37 -31.89,-0.23 -4.28,0.07 -6.31,-0.78 -6.3,-5.76 0.17,-62.61 -0.1,-125.22 0.33,-187.79 0.13,-22.38 15.67,-31.5 36.24,-22.3 6.3,2.82 11.51,7.18 16.62,11.73 48.9,43.81 97.83,87.59 146.75,131.37 1.61,1.43 3.25,2.81 6.31,5.45z"/>
   <path class="fil0" d="M1685.49 583.63c-28.63,0 -57.25,0.14 -85.86,-0.11 -5.43,-0.06 -7.11,1.51 -6.73,6.8 0.44,6.24 0.32,12.52 0.04,18.77 -0.4,8.81 4.1,13.42 12.08,15.97 11.37,3.66 23.12,3.69 34.76,3.74 43.08,0.18 86.15,0.21 129.22,-0.09 6.68,-0.06 9.11,1.54 8.65,8.48 -0.58,9.22 -0.25,18.49 -0.1,27.73 0.08,3.75 -1.03,5.37 -5.06,5.3 -53.13,-0.88 -106.32,1.84 -159.41,-1.62 -14.24,-0.93 -27.72,-5.4 -40.13,-12.61 -16.41,-9.55 -25.25,-23.73 -25.38,-42.76 -0.2,-33.73 -0.37,-67.47 0.04,-101.19 0.3,-26.34 16.42,-43.7 46.52,-52.45 23.19,-6.74 46.92,-5.53 70.58,-5.7 16.66,-0.1 16.86,-0.02 16.59,16.33 -0.14,8.02 3.56,18.75 -1.71,23.31 -4.58,3.98 -15.04,1.2 -22.9,1.38 -16.56,0.37 -33.24,-1 -49.54,3.42 -11.45,3.09 -14.31,6.54 -14.34,18.14 -0.03,5.97 0.4,12.01 -0.11,17.94 -0.57,6.36 1.44,8.23 8.01,8.2 55.34,-0.27 110.68,-0.19 166.02,-0.13 12.31,0.01 10.66,-1.45 10.79,10.93 0.04,6.8 -0.51,13.67 0.14,20.41 0.73,7.61 -1.33,10.19 -9.59,10.04 -27.52,-0.6 -55.07,-0.24 -82.59,-0.24z"/>
   <path class="fil0" d="M2397.19 536.8c0,-25.29 0.24,-50.62 -0.17,-75.93 -0.1,-6.6 1.95,-8.29 8.24,-7.98 9.8,0.51 19.67,0.54 29.44,0 6.36,-0.34 8.17,1.48 8.14,7.97 -0.3,44.38 -0.17,88.73 -0.17,133.1 0,22.64 4.59,30.21 27.24,32.66 36.54,3.96 73.45,5.16 110.02,-0.44 17.52,-2.68 22.91,-10.54 22.91,-27.95 0,-45.74 0.11,-91.46 -0.15,-137.17 -0.03,-6.16 1.23,-8.59 7.94,-8.19 10.31,0.64 20.72,0.37 31.05,0.08 4.72,-0.14 6.7,0.81 6.69,6.17 -0.23,49.25 0.21,98.52 -0.27,147.78 -0.33,31.68 -18.51,51.73 -51.02,58.42 -13.13,2.72 -26.36,4.45 -39.73,4.52 -34.59,0.2 -69.28,2.22 -103.72,-2.86 -16.16,-2.4 -31.35,-7.27 -42.8,-19.88 -11.15,-12.31 -13.51,-27.52 -13.6,-43.31 -0.1,-22.32 -0.03,-44.67 -0.03,-66.97z"/>
   <path class="fil0" d="M1087.17 537.51c0,-25.84 0.2,-51.68 -0.16,-77.52 -0.06,-5.88 1.71,-7.34 7.32,-7.09 10.35,0.46 20.72,0.47 31.05,0 5.82,-0.26 7.27,1.65 7.24,7.28 -0.21,47.6 -0.13,95.2 -0.11,142.83 0,15.02 3.66,19.74 18.23,23.14 13.68,3.19 27.67,2.51 41.52,2.62 33.79,0.27 67.58,0.21 101.37,-0.03 5.9,-0.06 8.27,1.18 7.87,7.59 -0.59,9.21 -0.34,18.47 -0.08,27.73 0.13,4.42 -1.01,6.27 -5.86,6.19 -46.58,-0.85 -93.24,1.71 -139.76,-1.78 -15.51,-1.17 -30.77,-4.16 -44.39,-12.4 -15.43,-9.34 -23.64,-23.23 -23.96,-41.06 -0.46,-25.84 -0.11,-51.68 -0.11,-77.52l-0.17 0z"/>
   <path class="fil0" d="M1316.79 536.16c0,-25.31 0.17,-50.6 -0.11,-75.91 -0.07,-5.56 1.22,-7.64 7.14,-7.36 10.33,0.47 20.74,0.53 31.04,-0.04 6.27,-0.33 7.61,1.68 7.57,7.68 -0.27,47.62 -0.16,95.22 -0.16,142.81 0,14.45 3.75,19.35 17.86,22.72 14.21,3.38 28.72,2.59 43.13,2.71 33.52,0.3 67.06,0.23 100.56,-0.03 5.64,-0.03 7.6,1.38 7.3,7.2 -0.5,9.21 -0.36,18.5 -0.06,27.72 0.15,4.69 -0.76,6.73 -6.14,6.64 -46.03,-0.91 -92.11,1.58 -138.13,-1.73 -15.26,-1.11 -30.26,-3.95 -43.85,-11.49 -18.93,-10.53 -26.1,-27.56 -26.13,-48.31 -0.03,-24.22 -0.01,-48.43 -0.01,-72.61z"/>
   <path class="fil0" d="M2334.39 561.58c0,-33.72 0.19,-67.44 -0.14,-101.17 -0.06,-6.06 1.44,-7.97 7.62,-7.64 10.62,0.54 21.25,0.3 31.88,0.08 4.27,-0.1 6.27,0.65 6.27,5.7 -0.17,69.06 -0.13,138.14 -0.03,207.22 0,4.26 -1.35,5.7 -5.59,5.63 -11.19,-0.23 -22.38,-0.37 -33.51,0.06 -5.73,0.23 -6.63,-2.08 -6.6,-7.08 0.17,-34.26 0.08,-68.54 0.08,-102.8z"/>
   <path class="fil0" d="M1023.31 562.59c0,-34.02 0.13,-68.01 -0.13,-102.03 -0.06,-5.82 1.01,-8.17 7.47,-7.81 10.6,0.6 21.25,0.33 31.87,0.08 4.46,-0.1 6.23,0.99 6.21,5.83 -0.14,68.84 -0.16,137.66 0.01,206.51 0.02,5.32 -2.08,6.34 -6.77,6.24 -10.35,-0.25 -20.74,-0.46 -31.07,0.06 -6.11,0.3 -7.83,-1.48 -7.75,-7.68 0.33,-33.72 0.16,-67.47 0.16,-101.2z"/>
   <path class="fil1" d="M525.89 347.85c0,0 51.22,-158.55 292.7,-187.82 241.47,-29.26 495.14,63.42 651.24,239.04l239.05 4.89c-316.06,-442.25 -1061.06,-473.23 -1182.99,-56.11z"/>
   <path class="fil1" d="M704.75 1378.17c0,0 617.96,311.7 889.03,72.71l271.69 54.47c0,0 -487.58,464.79 -1160.72,-127.18z"/>
   <path class="fil2" d="M1095.52 17.52c0,0 -1265.41,-39.07 -296.82,1327.87l-181.2 -0.73c0,0 654.97,740.34 1300.31,173.16 -340.03,546.61 -1381.1,246.7 -1604,-329.86l198.74 13.4c0,0 -167.53,-200.56 -206.88,-440.75 -73.84,-450.5 288.5,-850.04 789.85,-743.09z"/>
   <path class="fil0" d="M1234.67 1134.39c-118.77,0 -153.65,-36.64 -153.65,-138.29l0 -126.46c0,-101.64 34.88,-138.29 153.65,-138.29l279.52 0 0 77.42 -275.37 0c-54.97,0 -68.56,15.95 -68.56,65.59l0 118.19c0,50.24 13.59,65 69.15,65l274.79 0 0 76.83 -279.52 0z"/>
   <polygon class="fil0" points="1978.42,1134.39 1978.42,973.66 1682.95,973.66 1682.95,1134.39 1593.12,1134.39 1593.12,731.37 1682.95,731.37 1682.95,895.66 1978.42,895.66 1978.42,731.37 2067.65,731.37 2067.65,1134.39 "/>
   <path class="fil0" d="M2303.71 1132.24c-118.68,-4.53 -152.11,-42.47 -148.23,-144.04l10.12 -264.56 89.15 3.41 -9.96 261.01c-1.78,46.66 12.88,65.56 69.56,67.72l239.13 9.12 -2.93 76.78 -246.83 -9.44z"/>
   <polygon class="fil0" points="2625.58,731.37 2715.42,731.37 2715.42,1134.4 2625.58,1134.4 "/>
   <path class="fil0" d="M3183.74 1124.35l-293.7 -276.56 0 286.61 -83.33 0 0 -374.66c0,-25.41 19.5,-37.22 47.87,-37.22 20.08,0 33.09,5.9 41.95,14.77l296.06 285.42 0 -291.33 85.1 0 0 374.66c0,26.59 -18.31,37.23 -44.91,37.23 -18.91,0 -34.86,-5.32 -49.04,-18.91z"/>
   <polygon class="fil0" points="3681.05,1134.39 3456.48,937.6 3456.48,1134.39 3367.25,1134.39 3367.25,731.37 3456.48,731.37 3456.48,924.02 3676.33,731.37 3797.47,731.37 3566.99,926.97 3803.96,1134.39 "/>
   <polygon class="fil1" points="675.38,896.78 943.78,896.78 943.78,968.3 675.38,968.3 "/>
   <path class="fil1" d="M1022.22 1134.39l0 -76.25 -281.35 0c-52.6,0 -64.42,-13 -64.42,-61.47l0 -127.07c0,-46.69 12.41,-62.06 64.42,-62.06l99.31 0 0 -76.25 -99.31 0c-118.79,0 -153.66,36.66 -153.66,138.31l0 112.76c20.44,39.69 42.16,78.76 64.76,117.18 5.5,9.36 11.06,18.7 16.68,27.99 19.62,4.7 43.47,6.86 72.23,6.86l281.35 0z"/>
   <path class="fil1" d="M517.28 808.73l13.64 0 0 -77.43 -40.37 0c8.02,26.14 17.03,52.01 26.74,77.43z"/>
   <path class="fil1" d="M290.85 808.78c-3.75,-15.76 -7.03,-32 -9.68,-48.22 -1.56,-9.83 -2.97,-19.67 -4.21,-29.33l-182.1 0 0 0.06 -94.87 0 0 77.44 94.87 0 0 0.04 74.17 0 0 325.61 90.41 0 0 -176.92 0 -148.69 31.4 0z"/>
  </g>
 </g>
</svg>
